<svg xmlns="http://www.w3.org/2000/svg" xmlns:xlink="http://www.w3.org/1999/xlink" width="1180.001" height="457" viewBox="0 0 1180.001 457"><defs><clipPath id="a"><path d="M130,1332V875H1310v457Z" fill="#f3eff0"/></clipPath></defs><g transform="translate(-130 -875)"><path d="M130,1332V875H1310v457Z" fill="#f3eff0"/><g clip-path="url(#a)"><path d="M185.282,812.324,286.115,932.189a3.615,3.615,0,0,1-.439,5.093L165.811,1038.115a3.614,3.614,0,0,1-5.093-.439L59.885,917.811a3.615,3.615,0,0,1,.439-5.093L180.189,811.885A3.615,3.615,0,0,1,185.282,812.324Z" fill="none" stroke="#f8cc6a" stroke-width="10"/><g transform="translate(1181 1242)" fill="none" stroke="#55bc92" stroke-width="10"><circle cx="80.5" cy="80.5" r="80.5" stroke="none"/><circle cx="80.5" cy="80.5" r="75.5" fill="none"/></g></g></g></svg>