<svg xmlns="http://www.w3.org/2000/svg" xmlns:xlink="http://www.w3.org/1999/xlink" width="720" height="398" viewBox="0 0 720 398"><defs><clipPath id="a"><path d="M24,1146V748H744v398Z" fill="#f3eff0"/></clipPath></defs><g transform="translate(-24 -748)"><path d="M24,1146V748H744v398Z" fill="#f3eff0"/><g clip-path="url(#a)"><path d="M56.395,691.813,133.523,783.5a2.765,2.765,0,0,1-.336,3.9L41.5,864.523a2.764,2.764,0,0,1-3.9-.336L-39.522,772.5a2.765,2.765,0,0,1,.336-3.9L52.5,691.477A2.765,2.765,0,0,1,56.395,691.813Z" fill="none" stroke="#f8cc6a" stroke-width="10"/><g transform="translate(650 1085)" fill="none" stroke="#55bc92" stroke-width="10"><circle cx="70.5" cy="70.5" r="70.5" stroke="none"/><circle cx="70.5" cy="70.5" r="65.5" fill="none"/></g></g></g></svg>