<svg xmlns="http://www.w3.org/2000/svg" xmlns:xlink="http://www.w3.org/1999/xlink" width="720" height="478" viewBox="0 0 720 478"><defs><clipPath id="a"><path d="M-172,1113V635H548v478Z" fill="#f3eff0"/></clipPath></defs><g transform="translate(172 -635)"><path d="M-172,1113V635H548v478Z" fill="#f3eff0"/><g clip-path="url(#a)"><path d="M18.395,541.813,95.523,633.5a2.765,2.765,0,0,1-.336,3.9L3.5,714.522a2.765,2.765,0,0,1-3.9-.336L-77.522,622.5a2.766,2.766,0,0,1,.336-3.9L14.5,541.477A2.765,2.765,0,0,1,18.395,541.813Z" fill="none" stroke="#f8cc6a" stroke-width="10"/><g transform="translate(305 1043)" fill="none" stroke="#55bc92" stroke-width="10"><circle cx="70.5" cy="70.5" r="70.5" stroke="none"/><circle cx="70.5" cy="70.5" r="65.5" fill="none"/></g></g></g></svg>