<svg xmlns="http://www.w3.org/2000/svg" width="551.062" height="551.062" fill="#BBD8EA"><path d="M465.19 453.459c14.749 67.688-58.752 82.375-91.127 73.562s-98.41-10.281-98.41-10.281-66.218 1.469-98.593 10.281c-32.375 8.874-105.937-5.875-91.249-73.562s79.438-64.75 97.186-155.999c17.687-91.249 92.718-85.374 92.718-85.374s74.847-5.875 92.535 85.374c17.625 91.249 82.252 88.311 96.94 155.999zM343.586 206.15c39.841 11.505 83.844-19.951 98.349-70.258 14.504-50.245-5.998-100.307-45.839-111.812-39.842-11.506-83.844 19.951-98.349 70.258-14.504 50.245 5.998 100.307 45.839 111.812zm165.117-18.298c-38.372-15.668-85.496 10.894-105.264 59.363-19.768 48.471-4.712 100.43 33.66 116.035 38.372 15.606 85.496-10.894 105.264-59.364s4.713-100.367-33.66-116.034zM207.416 206.15c39.841-11.506 60.343-61.567 45.839-111.812s-58.568-81.702-98.349-70.196c-39.78 11.505-60.343 61.566-45.839 111.812 14.505 50.245 58.508 81.701 98.349 70.196zm-93.453 157.1c38.373-15.667 53.428-67.626 33.66-116.035s-66.892-75.031-105.264-59.363C3.987 203.519-11.068 255.478 8.7 303.886c19.767 48.47 66.891 75.031 105.263 59.364z"/></svg>